<?xml version="1.0" standalone="no"?>
<!DOCTYPE svg PUBLIC "-//W3C//DTD SVG 20010904//EN"
 "http://www.w3.org/TR/2001/REC-SVG-20010904/DTD/svg10.dtd">
<svg version="1.0" xmlns="http://www.w3.org/2000/svg"
 width="600.000000pt" height="600.000000pt" viewBox="0 0 600.000000 600.000000"
 preserveAspectRatio="xMidYMid meet">
<metadata>
Created by potrace 1.14, written by Peter Selinger 2001-2017
</metadata>
<g transform="translate(0.000000,600.000000) scale(0.100000,-0.100000)"
fill="#000000" stroke="none">
<path d="M550 3000 l0 -1140 825 0 825 0 0 140 0 140 -665 0 -665 0 0 370 0
370 570 0 570 0 0 135 0 135 -570 0 -570 0 0 355 0 355 641 -2 642 -3 164
-525 c91 -289 231 -736 312 -995 l147 -470 279 -3 280 -2 205 526 c113 290
209 536 213 548 7 17 55 -94 226 -524 l217 -545 280 -3 279 -2 303 982 c166
541 324 1054 351 1141 l49 157 -337 0 -336 0 -180 -655 c-146 -532 -182 -651
-190 -633 -5 12 -129 303 -275 647 l-266 626 -111 3 -110 3 -269 -645 c-148
-355 -272 -642 -275 -638 -4 4 -88 295 -187 647 l-179 640 -1097 3 -1096 2 0
-1140z"/>
</g>
</svg>
