<svg version="1.0" xmlns="http://www.w3.org/2000/svg" width="800" height="800" viewBox="0 0 600 600"><path d="M55 300v114h165v-28H87v-74h114v-27H87v-71l64.1.2 64.2.3 16.4 52.5c9.1 28.9 23.1 73.6 31.2 99.5l14.7 47 27.9.3 28 .2 20.5-52.6c11.3-29 20.9-53.6 21.3-54.8.7-1.7 5.5 9.4 22.6 52.4l21.7 54.5 28 .3 27.9.2 30.3-98.2c16.6-54.1 32.4-105.4 35.1-114.1l4.9-15.7H478.5l-18 65.5c-14.6 53.2-18.2 65.1-19 63.3-.5-1.2-12.9-30.3-27.5-64.7l-26.6-62.6-11.1-.3-11-.3-26.9 64.5c-14.8 35.5-27.2 64.2-27.5 63.8-.4-.4-8.8-29.5-18.7-64.7l-17.9-64-109.7-.3L55 186v114z"/></svg>